<?xml version="1.0" encoding="utf-8"?>
<!-- Generator: Adobe Illustrator 21.0.0, SVG Export Plug-In . SVG Version: 6.00 Build 0)  -->
<svg version="1.1" id="Layer_1" xmlns="http://www.w3.org/2000/svg" xmlns:xlink="http://www.w3.org/1999/xlink" x="0px" y="0px"
	 viewBox="0 0 512 512" style="enable-background:new 0 0 512 512;" xml:space="preserve">
<style type="text/css">
	.st0{fill:#2196F3;}
	.st1{fill:#FFFFFF;}
</style>
<g>
	<g>
		<path class="st0" d="M238.4,9.7c56.7-4.4,114.7,12,160.9,45.2c39.4,28,70.2,67.8,87.4,113c14.6,38.5,19.7,80.8,13.9,121.6
			c-6.9,52.8-31.9,102.8-69.3,140.5c-35.7,36.1-82.8,60.8-132.9,69.3c-47.8,8.4-98,2.3-142.3-17.4C104.5,459.2,61.2,418.3,35.8,368
			c-21.2-41.3-30.2-88.9-25.7-135.1C15.6,169.4,47.4,108.8,96,67.8C135.7,33.9,186.4,13.1,238.4,9.7z M248.5,105.8
			c-12.2,2.6-22.4,12.3-25.6,24.3c-3.1,11-0.2,23.5,7.4,32c8.8,10.2,24,14.3,36.7,9.7c16.4-5.2,26.8-24,22.2-40.6
			C285.5,113.5,266,101.5,248.5,105.8z M228.6,214.9c0,64,0,128,0,192c18.3,0.1,36.5,0.1,54.8,0c0.1-64,0-128,0-192
			C265.1,214.8,246.8,214.8,228.6,214.9z"/>
	</g>
</g>
<g>
	<path class="st1" d="M247.5,105.8c17.5-4.3,36.9,7.7,40.7,25.3c4.6,16.6-5.9,35.4-22.2,40.6c-12.7,4.6-27.9,0.5-36.7-9.7
		c-7.7-8.5-10.5-21-7.4-32C225.1,118.1,235.4,108.4,247.5,105.8z"/>
	<path class="st1" d="M227.6,214.9c18.3-0.1,36.6-0.1,54.9,0c0,64,0,128,0,192c-18.3,0.1-36.6,0.1-54.8,0
		C227.5,342.9,227.5,278.9,227.6,214.9z"/>
</g>
</svg>
