<?xml version="1.0" encoding="utf-8"?>
<!-- Generator: Adobe Illustrator 21.0.0, SVG Export Plug-In . SVG Version: 6.00 Build 0)  -->
<svg version="1.1" id="Layer_1" xmlns="http://www.w3.org/2000/svg" xmlns:xlink="http://www.w3.org/1999/xlink" x="0px" y="0px"
	 viewBox="0 0 1024 1024" style="enable-background:new 0 0 1024 1024;" xml:space="preserve">
<style type="text/css">
	.st0{fill:#1D71B8;}
	.st1{fill:#3C3C3B;}
</style>
<g>
	<path class="st0" d="M452.3,81.4c57-56.3,141.3-82.1,220.2-69.1C765,25.8,846.4,94.5,875.7,183.1c31.4,89.5,8.4,195.4-58.2,263
		C761.2,502.7,705,559.4,648.1,615.3c-73.3,70.4-188.6,87.9-281.1,47.5c34.5-35.2,69.9-69.5,104.1-104.9
		c19.5-21.5,53.6-16.9,74.1-37.7c58.2-54.3,112.9-112.3,169.7-168.1c35.8-34.2,45.9-91.2,24.5-135.8c-23.3-52.8-88.3-81-143-62.9
		c-36.3,10-59.9,41.2-85.8,66.3C414.5,314,322.7,412.4,226.2,506.3c-27.5-87.5-6.8-189.2,57.2-255.7
		C339.3,193.8,396,137.6,452.3,81.4z"/>
</g>
<g>
	<path class="st1" d="M376.7,407.8c72.4-69.8,185.8-87.4,277.9-49.4c-35.3,36.2-71.5,71.5-106.8,107.6
		c-19.9,20.7-52.7,18.8-72.4,40.1C419.4,560.1,365.3,616,310,670.7c-39.1,37.1-47.1,101.2-18.7,146.9c26.9,46.5,87.2,68.7,138,51.7
		c32.2-9.1,54.5-35.5,77.3-58.4c97.7-97.4,194.9-195.3,292.9-292.4c26,87.2,5.5,187.6-58.1,253.9
		c-55.8,56.8-112.3,112.7-168.7,168.9c-58.5,57.8-145.9,83.7-226.6,68.3c-90.3-15.8-168.7-83.7-197.2-170.8
		c-31-89.4-8-195.2,58.9-262.5C264,520.1,320,463.6,376.7,407.8z"/>
</g>
</svg>
