<?xml version="1.0" encoding="utf-8"?>
<!-- Generator: Adobe Illustrator 21.0.0, SVG Export Plug-In . SVG Version: 6.00 Build 0)  -->
<svg version="1.1" id="Layer_1" xmlns="http://www.w3.org/2000/svg" xmlns:xlink="http://www.w3.org/1999/xlink" x="0px" y="0px"
	 viewBox="0 0 512 512" style="enable-background:new 0 0 512 512;" xml:space="preserve">
<style type="text/css">
	.st0{fill:#F46963;}
	.st1{fill:#FFFFFF;}
</style>
<g>
	<g>
		<path class="st0" d="M53,10.3c4.6-0.5,9.2-0.2,13.9-0.3c127.6,0,255.2,0,382.8,0c5.6,0,11.3-0.4,16.7,1.1
			c20.6,4.8,36.5,25.1,35.6,46.3c0.2,131.1,0,262.2,0.1,393.4c-0.2,5.6,0.2,11.3-1.4,16.8c-4.8,19.7-23.5,35-43.9,35.4
			c-133.1,0-266.3,0-399.4,0c-14.9,0-29.5-7.8-38-20.1c-6.2-8.6-8.9-19.3-8.6-29.8c-0.1-129.2,0-258.3,0-387.5
			c0-8.6-0.2-17.5,3.3-25.6C20,23.9,35.8,12.2,53,10.3z M135.8,102.7c-11.4,11.5-22.9,22.9-34.4,34.4c-8.4,8.4-8.5,23.2-0.6,31.9
			c28.9,29.3,58.3,58,87.1,87.4c-28,28.6-56.5,56.7-84.8,85c-9.7,8.2-11.1,24.4-2.3,33.8c11.1,11.4,22.6,22.5,33.7,33.9
			c3,3.1,6.3,6,10.5,7.4c8,2.7,17.6,1.4,23.9-4.5c29.3-28.9,58-58.3,87.4-87.1c26.4,25.8,52.3,52.2,78.5,78.2
			c4.9,4.6,9.1,10.4,15.5,13c8.4,3.3,18.8,1.7,25.4-4.7c11.7-11.6,23.3-23.3,35-35c8.7-8.4,9.4-23.7,1.1-32.5
			c-28.9-29.3-58.3-58-87.1-87.5c25.4-26,51.4-51.5,77.1-77.3c3.8-4.1,8.2-7.7,11.6-12.1c4.3-5.7,5.1-13.4,3.5-20.2
			c-1.4-5.4-5.2-9.7-9.1-13.4c-10.7-10.6-21.3-21.4-32-32c-8.6-8.6-24-8.5-32.6,0c-29,28.8-57.6,58-86.8,86.6c-2.8-2.5-5.5-5-8-7.7
			c-26.3-26.3-52.5-52.6-78.8-78.8C160.5,92.6,144.3,93.1,135.8,102.7z"/>
	</g>
</g>
<g>
	<path class="st1" d="M135.8,102.7c8.4-9.6,24.7-10.1,33.8-1.2c26.3,26.3,52.5,52.5,78.8,78.8c2.5,2.7,5.2,5.3,8,7.7
		c29.2-28.6,57.8-57.8,86.8-86.6c8.6-8.5,24-8.6,32.6,0c10.7,10.6,21.3,21.4,32,32c4,3.7,7.8,8,9.1,13.4c1.6,6.8,0.8,14.5-3.5,20.2
		c-3.4,4.4-7.8,8-11.6,12.1c-25.6,25.8-51.6,51.3-77.1,77.3c28.8,29.4,58.2,58.2,87.1,87.5c8.3,8.9,7.6,24.2-1.1,32.5
		c-11.7,11.6-23.3,23.3-35,35c-6.5,6.4-17,8-25.4,4.7c-6.4-2.6-10.6-8.4-15.5-13c-26.2-26-52.1-52.4-78.5-78.2
		C227,353.7,198.3,383.1,169,412c-6.3,5.9-15.9,7.2-23.9,4.5c-4.1-1.4-7.5-4.3-10.5-7.4c-11.2-11.4-22.6-22.5-33.7-33.9
		c-8.8-9.3-7.4-25.6,2.3-33.8c28.3-28.3,56.8-56.4,84.8-85c-28.8-29.4-58.2-58.2-87.1-87.4c-7.9-8.7-7.8-23.5,0.6-31.9
		C112.9,125.6,124.4,114.2,135.8,102.7z"/>
</g>
</svg>
