<?xml version="1.0" encoding="utf-8"?>
<!-- Generator: Adobe Illustrator 21.0.0, SVG Export Plug-In . SVG Version: 6.00 Build 0)  -->
<svg version="1.1" id="Layer_1" xmlns="http://www.w3.org/2000/svg" xmlns:xlink="http://www.w3.org/1999/xlink" x="0px" y="0px"
	 viewBox="0 0 1024 1024" style="enable-background:new 0 0 1024 1024;" xml:space="preserve">
<style type="text/css">
	.st0{fill:#148DBD;}
</style>
<g>
	<path class="st0" d="M511.5,14C236.7,14,13,237.7,13,512.5S236.7,1011,511.5,1011S1010,787.3,1010,512.5S786.3,14,511.5,14z
		 M851.1,246c-18.3,12.3-52.8,25.9-103,36.9c-11.3-38.2-25.9-73.8-43.2-105.3c-15.3-27.9-31.9-52.2-49.8-72.4
		C733.2,132.6,801,182.2,851.1,246z M446.7,85.5c16-2.3,31.9-4,48.2-4.7v224c-72.4-0.7-133.6-6.3-183.4-14.6
		c10.6-34.9,23.9-67.5,39.9-96.7C378.9,142.3,411.5,105.7,446.7,85.5z M528.1,80.8c18.3,0.7,36.2,2.7,53.8,5.3
		c34.6,20.6,66.8,56.8,93.7,107c15.6,28.9,28.9,61.1,39.5,96c-50.2,8.6-113,14.6-187.4,15.6v-224H528.1z M373.9,103.1
		c-18.6,20.6-36.2,45.2-51.8,74.4c-17.3,31.9-31.9,67.8-43.5,106.3c-52.2-11-88.1-24.9-107-37.9C223.4,180.5,293.5,130,373.9,103.1z
		 M171.9,779c18.9-12.6,54.8-26.6,107-37.9c11.6,38.6,25.9,74.1,43.5,106.3c15.6,28.9,32.9,53.8,51.8,74.4
		C293.5,895,223.4,844.5,171.9,779z M582,938.9c-17.6,3-35.6,4.7-53.8,5.3v-224c74.4,0.7,137.3,6.6,187.4,15.6
		c-10.6,34.6-23.9,67.1-39.5,96C648.8,881.7,616.8,918.3,582,938.9z M494.9,944.2c-16.3-0.7-32.2-2-48.2-4.7
		c-35.2-20.3-67.8-57.2-95.4-108c-15.6-29.2-29.2-61.8-39.9-96.7c49.5-8.3,111-14,183.4-14.6V944.2z M655.4,919.9
		c17.9-20.3,34.6-44.2,49.8-72.4c17.3-31.9,31.6-67.1,43.2-105.3c50.2,11,84.7,24.6,103,36.9C801,842.8,733.2,892.4,655.4,919.9z
		 M870.8,752.1C870.8,752.4,870.8,752.4,870.8,752.1c-20.3-14.3-51.2-26.6-92.1-36.9c-7-1.7-14.3-3.3-21.6-5l0,0
		c6-24.6,11-50.2,15-76.1h-33.6c-3.7,23.9-8.3,47.5-14,69.8l0,0c-57.8-10-125.3-16-196.4-16.6v-53.2h-33.2v53.2
		c-69.1,0.7-135.3,6.3-192.1,16l0,0c-5.6-22.3-10.3-45.5-13.6-69.1h-33.6c3.7,25.9,8.6,51.2,14.6,75.4l0,0c-9,2-17.3,4-25.6,6
		c-41.2,10.3-71.8,22.9-92.1,36.9l0,0c-43.2-64.5-69.5-140.9-72.4-223h119v-33.2H79.8c3-82.4,29.2-158.9,72.4-223.3l0,0
		c20.3,14.3,50.8,26.6,92.1,36.9c8.3,2,16.9,4,25.6,6l0,0c-6,24.3-11,49.5-14.6,75.4h33.6c3.7-23.6,8-46.9,13.6-69.1l0,0
		c56.8,9.6,123,15.3,192.1,16v53.2h33.2V338c70.8-0.7,138.6-6.6,196.4-16.6l0,0c5.6,22.6,10.3,45.9,14,69.8h33.6
		c-3.7-26.3-8.6-51.5-15-76.1l0,0c7.3-1.7,14.6-3.3,21.6-5c41.2-10.3,71.8-22.9,92.1-36.9l0,0c43.2,64.5,69.5,140.9,72.4,223.3h-119
		v33.2h119.3C940.2,611.5,914,688,870.8,752.1z"/>
	<polygon class="st0" points="355,530.1 354.6,530.1 331.7,446.7 304.5,446.7 280.9,531.8 280.5,531.8 265.9,446.7 225.7,446.7 
		258.6,585.3 294.8,585.3 317.7,507.5 318.1,507.5 341,585.3 377.6,585.3 410.1,446.7 370.3,446.7 	"/>
	<polygon class="st0" points="545.4,530.1 545.1,530.1 521.8,446.7 494.6,446.7 471.3,531.8 471,531.8 456,446.7 416.1,446.7 
		448.7,585.3 485.2,585.3 508.2,507.5 508.5,507.5 531.1,585.3 568,585.3 600.6,446.7 560.4,446.7 	"/>
	<polygon class="st0" points="735.5,530.1 735.2,530.1 712.2,446.7 685,446.7 661.7,531.8 661,531.8 646.4,446.7 606.2,446.7 
		639.1,585.3 675.7,585.3 698.3,507.5 698.6,507.5 721.5,585.3 758.1,585.3 790.7,446.7 750.8,446.7 	"/>
</g>
</svg>
