<?xml version="1.0" encoding="utf-8"?>
<!-- Generator: Adobe Illustrator 21.0.0, SVG Export Plug-In . SVG Version: 6.00 Build 0)  -->
<svg version="1.1" id="Layer_1" xmlns="http://www.w3.org/2000/svg" xmlns:xlink="http://www.w3.org/1999/xlink" x="0px" y="0px"
	 viewBox="0 0 1024 1024" style="enable-background:new 0 0 1024 1024;" xml:space="preserve">
<style type="text/css">
	.st0{fill:none;stroke:#000000;stroke-width:80;stroke-miterlimit:10;}
	.st1{fill:none;stroke:#666666;stroke-width:80;stroke-miterlimit:10;}
</style>
<g>
	<path class="st0" d="M75.7,277c15.8-27.2,45.1-47.4,77.1-48.2c10.5-0.1,20.9-0.3,31.5,0.2c92.2,0,184.5,0,276.7,0
		c41-0.1,81.8,0.3,122.8-0.3c8.9,0.1,18-0.4,26.9,1.2c19.5,3.2,37.6,13.4,51.2,27.7c15.5,15,23.9,35.9,27.5,56.8
		c0.8,10.1,0.9,20.4,0.9,30.5c0.2,8-0.6,16,0,24c-50,0-99.9,0-149.9,0c-10.4-0.1-20.8,0.2-31.4-0.2c-15,0-29.8,6.5-40.9,16.5
		c-13.7,12.4-22.9,29.9-23.8,48.3c-0.1,68.3,0.1,136.5-0.1,204.8c-15.3-0.2-30.7,0.4-46,0.3c-17.2-0.5-34.3-0.2-51.5-0.2
		c-34.6,41.8-70.2,82.6-104.6,124.5c-3,0.3-6.3,0.3-9.2-0.6c-1.8-0.6-3.2-2.1-3.2-4c-0.4-39.8-0.4-79.8,0-119.6
		c-13.7,0-27.2-0.4-40.9-0.3c-14.5-0.3-29,0.9-43.3-0.3c-34-4-63.8-28.9-76-60.5c-4.3-11.5-7-23.7-7.4-36c0-66.4,0-132.8,0-199.1
		C60.8,319.9,64.1,296.5,75.7,277z"/>
</g>
<g>
	<path class="st1" d="M468,385.3c11.1-10.1,25.7-16.5,40.9-16.5c10.4,0.3,20.8,0.1,31.4,0.2c50,0,100,0,149.9,0
		c70.3,0,140.6-0.1,210.8,0c31.3,2.4,56.8,30.3,60.6,60.8c1.1,9.8,0.4,19.7,0.6,29.6c0,58.4,0,116.9,0,175.2
		c-0.2,30.9-23,60-53,67.5c-9,2.5-18.4,1.9-27.7,1.9c-27.7,0.6-55.3-0.1-83,0c-6.3,0.4-12.5,0.2-18.7,0.3c0.3,28.4,0.5,56.9,0,85.4
		c-0.7,4.2-5.3,6.2-9.1,5.5c-25.3-30.3-50.5-60.8-76.6-90.4c-43-1.3-85.9-0.5-128.8-0.5c-8.6-0.1-17.2,0.3-25.8-0.3
		c-17.4,0.3-35.8,1.7-52.3-5.3c-24-10.1-41.4-34.4-42.8-60.5c0.2-68.3,0-136.5,0.1-204.8C445.2,415.1,454.4,397.5,468,385.3z"/>
</g>
</svg>
