<?xml version="1.0" encoding="utf-8"?>
<!-- Generator: Adobe Illustrator 21.0.0, SVG Export Plug-In . SVG Version: 6.00 Build 0)  -->
<svg version="1.1" id="Layer_1" xmlns="http://www.w3.org/2000/svg" xmlns:xlink="http://www.w3.org/1999/xlink" x="0px" y="0px"
	 viewBox="0 0 512 512" style="enable-background:new 0 0 512 512;" xml:space="preserve">
<style type="text/css">
	.st0{fill:#148DBD;}
	.st1{fill:#F37737;}
</style>
<g>
	<g>
		<path class="st0" d="M234.4,9.6c17-1.7,34.2-1.2,51.1,1c5.7,0.7,10.5,4.6,13.3,9.4c3.5,6.1,1.8,13.3,2.2,20
			c-0.9,9.1,4.3,18.5,12.4,22.7c11.1,4.6,22.2,9.1,33.3,13.7c7.6,3.7,17.3,2.5,23.9-2.8c4.4-3.9,8.2-8.4,12.5-12.4
			c6.3-5.9,17.4-5.9,23.3,0.5c14,14,28,28,42,42c6.6,6.3,6.1,18.1-0.6,24.2c-5,5.7-11.9,10.1-14.6,17.5c-2.1,5.8-2.2,12.4,0.6,18
			c4.3,10.3,8.6,20.7,12.8,31.1c2.7,6.9,9.2,12,16.3,13.6c7,0.9,14-0.1,21,0.5c7.5,0.8,14.1,7,15.5,14.4c3.1,21.1,3.1,42.6,0,63.8
			c-1.3,6.8-6.8,12.5-13.5,14.2c-7.3,1.3-14.8,0.1-22.1,0.9c-7.6,1.3-14.4,6.7-17.3,13.8c-4.3,10.4-8.5,20.8-12.8,31.1
			c-3.2,6.9-2.3,15.4,1.9,21.7c4.4,5.9,10.6,10.1,15.1,16c4.2,6.4,3.6,15.8-2,21.3c-14,14-28,28.1-42,42.1c-5.5,5.5-15,6.1-21.4,1.9
			c-4.4-3.6-8.2-7.8-12.3-11.8c-6.3-6.6-16.9-8.9-25.3-5c-10.1,4.2-20.3,8.4-30.5,12.6c-7.3,2.8-12.8,9.8-14.2,17.5
			c-0.5,6.7,0.2,13.5-0.3,20.2c-1.1,7.6-7.2,14.2-14.9,15.5c-21.2,3.1-42.8,3.2-64,0.1c-7.6-1.7-13.7-8.9-14-16.7
			c-0.1-5.7,0.1-11.5-0.1-17.2c-1-8.3-6.8-16.1-14.8-18.9c-10-4-20-8-29.9-12.1c-7.5-3.5-16.9-2.2-23.3,3c-4.4,4-8.3,8.4-12.6,12.5
			c-6.3,5.8-17.2,5.9-23.3-0.2c-14.2-13.8-28.2-27.8-42.3-41.7c-6.1-5.6-6.4-15.9-1.5-22.3c3.7-4.3,7.9-8,11.8-12.1
			c6.3-6.4,7.9-16.9,4.1-25c-4.5-10.3-8.7-20.6-13.1-30.9c-3.4-8.2-12.1-13.8-20.9-13.9c-5,0-9.9,0.3-14.9,0
			c-8.2,0.1-15.6-6.5-17.2-14.4c-3.3-21.1-3.5-42.6-0.6-63.7c1.4-7.7,8.3-14.1,16-14.8c5.2-0.3,10.5,0,15.7-0.2
			c9,0.1,17.7-5.9,20.8-14.3c4.3-10.7,8.6-21.5,13-32.2c2.2-5.3,2-11.3,0.1-16.6c-2.7-7.3-9.6-11.6-14.6-17.3
			c-6.9-6.1-7.6-18-1-24.5C75,91.4,88.8,77.4,102.4,63.4c4.9-5.4,13.3-6.9,19.9-3.8c5.6,3.1,9.5,8.5,14.2,12.8
			c5.9,6.3,15.5,8.5,23.6,5.7c11.3-4.7,22.6-9.5,34-14.2c7-2.9,12.1-9.5,13.6-16.9c0.8-7-0.2-14.1,0.4-21.2
			c1.2-6.8,6.4-12.8,13.1-14.6C225.6,10.3,230,10,234.4,9.6z M242.2,87.2c-19.4,1.7-38.6,6.5-56.3,14.6
			c-34.1,15.5-62.7,42.8-79.8,76.2c-10.1,19.5-16.3,41.1-18,63c-3.7,42.2,9.5,85.7,36.2,118.6c14.9,18.6,33.8,34.1,55.1,45
			c20.6,10.6,43.4,16.6,66.5,18.1c33.7,1.9,68-6.5,96.8-24.2c36.1-21.7,63.4-57.5,74.6-98.1c8.9-31.3,8.3-65.1-1.5-96.1
			c-8.6-27.3-24.3-52.2-45.2-71.7c-20.1-19.1-45.1-33-71.9-40.1C280.3,87.3,261.1,86.1,242.2,87.2z"/>
	</g>
</g>
<g>
	<path class="st1" d="M232.3,104.1c5.3-1,10.7-1.3,16.1-1.8c0.4,22.5,0.1,45.1,0.2,67.7c-0.1,4,0.3,8-0.3,11.9
		c-20.3-1.1-40.5-4.1-59.8-10.7C198.5,146.3,213.6,123.4,232.3,104.1z"/>
	<path class="st1" d="M265.5,174c0.1-23.9-0.2-47.8,0.2-71.6c5,0.4,10,0.7,15,1.7c18.4,19.6,33.8,42.4,43.6,67.5
		c-18.9,6-38.7,9.4-58.5,10.3C265.5,179.2,265.5,176.6,265.5,174z"/>
	<path class="st1" d="M143.8,151.5c16.2-17.6,36.4-31.4,58.9-39.7c-11.8,15.9-22.1,33-29.6,51.3c-0.4,1.2-1.2,2.7-2.7,1.6
		C161.2,160.9,152.4,156.4,143.8,151.5z"/>
	<path class="st1" d="M309.7,111.8c22.7,8.1,43.1,22.1,59.4,39.8c-9.3,5.2-18.6,10.4-28.8,13.7C332.6,146.2,322.1,128.2,309.7,111.8
		z"/>
	<path class="st1" d="M132.5,165c10.7,6.4,21.9,11.9,33.5,16.6c-5.3,16.4-8.9,33.3-10.5,50.4c-0.9,4.4,0,9.1-1.2,13.5
		c-16.9,0.3-33.8,0.2-50.7,0.1C105.3,216.6,115.5,188.3,132.5,165z"/>
	<path class="st1" d="M346.8,181.5c11.6-4.5,22.8-10.1,33.6-16.4c17.1,23.3,27.1,51.6,28.8,80.4c-17.1,0.1-34.1,0.1-51.2,0
		c-0.9-18.2-3.4-36.3-8.4-53.8C348.6,188.2,347.4,184.9,346.8,181.5z"/>
	<path class="st1" d="M182.3,187.6c21.4,6.6,43.5,11.2,66,11.6c0.6,15.4,0.1,30.8,0.2,46.2c-25.5,0.4-51,0.1-76.4,0.2
		C172.6,225.8,176.4,206.3,182.3,187.6z"/>
	<path class="st1" d="M265.7,199.2c22.1-0.5,43.8-5.2,64.9-11.5c5.9,18.7,9.2,38.1,10.1,57.6c-17.2,0.4-34.4,0.1-51.7,0.2
		c-7.8-0.1-15.6,0.2-23.5-0.2C265.6,229.9,265.3,214.6,265.7,199.2z"/>
	<path class="st1" d="M171.9,263.6c25.5,0,51-0.3,76.5,0.1c0.1,15.6,0,31.1,0.1,46.7c-22.5,0.9-44.9,4.8-66.3,11.8
		C176.2,303.2,172.3,283.5,171.9,263.6z"/>
	<path class="st1" d="M265.5,263.7c25-0.3,50.1-0.3,75.2,0c-0.8,19.8-4.1,39.5-10.2,58.4c-20.2-6.5-41.3-10.6-62.6-11.4
		c-0.6-0.2-1.8-0.5-2.3-0.6C265.4,294.6,265.5,279.1,265.5,263.7z"/>
	<path class="st1" d="M103.5,263.7c17.1-0.3,34.2-0.4,51.2,0c0.6,21.8,4.5,43.6,11.3,64.3c-11.6,4.9-23,10.3-33.8,16.9
		C115.1,321.4,104.9,292.8,103.5,263.7z"/>
	<path class="st1" d="M358,263.5c17.1-0.1,34.1-0.1,51.2,0c-1,29.2-11.5,57.8-28.5,81.5c-10.9-6.5-22.3-12.2-34-17.2
		C353.3,307,357,285.4,358,263.5z"/>
	<path class="st1" d="M188.5,338.4c19.4-6.1,39.5-9.5,59.8-10.4c0.3,26.7,0.1,53.4,0.1,80.1c-5.3-0.2-10.6-0.7-15.8-1.7
		c-17.7-18.1-31.9-39.6-42.2-62.8C189.6,341.9,189,340.1,188.5,338.4z"/>
	<path class="st1" d="M265.8,328c19.8,1,39.6,4.3,58.5,10.3c-9.1,23-22.7,44.3-39.2,62.8c-1.8,1.9-3.4,4-5.5,5.5
		c-4.6,0.8-9.3,1.3-14.1,1.5c-0.2-25,0-50-0.1-75.1C265.4,331.3,265.6,329.7,265.8,328z"/>
	<path class="st1" d="M143.5,358.6c9.1-5.4,18.6-10.3,28.5-14c8.1,19.4,18.6,37.7,31.3,54.4C180.6,390.4,159.8,376.6,143.5,358.6z"
		/>
	<path class="st1" d="M309.2,399c12.7-16.8,23.3-35.2,31.4-54.6c10,3.8,19.5,8.8,28.7,14.1C353.1,376.7,332.1,390.6,309.2,399z"/>
</g>
</svg>
