<?xml version="1.0" encoding="utf-8"?>
<!-- Generator: Adobe Illustrator 21.0.0, SVG Export Plug-In . SVG Version: 6.00 Build 0)  -->
<svg version="1.1" id="Layer_1" xmlns="http://www.w3.org/2000/svg" xmlns:xlink="http://www.w3.org/1999/xlink" x="0px" y="0px"
	 viewBox="0 0 1024 1024" style="enable-background:new 0 0 1024 1024;" xml:space="preserve">
<style type="text/css">
	.st0{fill:#25A3DA;}
	.st1{fill:#666666;}
</style>
<g>
	<path class="st0" d="M38.3,249.3c17.1-29.5,48.9-51.4,83.6-52.3c11.4-0.1,22.7-0.3,34.1,0.2c100,0,200,0,300,0
		c44.4-0.1,88.7,0.3,133.1-0.3c9.7,0.1,19.5-0.4,29.2,1.3c21.1,3.5,40.8,14.5,55.5,30c16.8,16.3,25.9,38.9,29.8,61.6
		c0.9,11,1,22.1,1,33.1c0.2,8.7-0.7,17.4,0,26c-54.2,0-108.3,0-162.5,0c-11.3-0.1-22.6,0.2-34-0.2c-16.3,0-32.3,7-44.3,17.9
		C448.9,380,439,399,438,419c-0.1,74,0.1,148-0.1,222c-16.6-0.2-33.3,0.4-49.9,0.3c-18.6-0.5-37.2-0.2-55.8-0.2
		c-37.5,45.3-76.1,89.6-113.4,135c-3.3,0.3-6.8,0.3-10-0.7c-1.9-0.6-3.5-2.3-3.5-4.3c-0.4-43.2-0.4-86.5,0-129.7
		c-14.8,0-29.5-0.4-44.3-0.3c-15.7-0.3-31.4,1-47-0.3c-36.9-4.3-69.2-31.3-82.4-65.6c-4.7-12.5-7.6-25.7-8-39c0-72,0-144,0-215.9
		C22.2,295.8,25.8,270.5,38.3,249.3z"/>
</g>
<g>
	<path class="st1" d="M463.7,366.7c12-10.9,27.9-17.9,44.3-17.9c11.3,0.3,22.6,0.1,34,0.2c54.2,0,108.4,0,162.5,0
		c76.2,0,152.4-0.1,228.6,0c33.9,2.6,61.6,32.8,65.7,65.9c1.2,10.6,0.4,21.4,0.6,32.1c0,63.3,0,126.7,0,190
		c-0.2,33.5-24.9,65.1-57.5,73.2c-9.8,2.7-20,2.1-30,2.1c-30,0.7-60-0.1-90,0c-6.8,0.4-13.5,0.2-20.3,0.3c0.3,30.8,0.5,61.7,0,92.6
		c-0.8,4.5-5.7,6.7-9.9,6c-27.4-32.9-54.8-65.9-83.1-98c-46.6-1.4-93.1-0.5-139.7-0.5c-9.3-0.1-18.7,0.3-28-0.3
		c-18.9,0.3-38.8,1.8-56.7-5.7c-26-11-44.9-37.3-46.4-65.6c0.2-74,0-148,0.1-222C439,399,448.9,380,463.7,366.7z"/>
</g>
</svg>
