<?xml version="1.0" encoding="utf-8"?>
<!-- Generator: Adobe Illustrator 21.0.0, SVG Export Plug-In . SVG Version: 6.00 Build 0)  -->
<svg version="1.1" id="Layer_1" xmlns="http://www.w3.org/2000/svg" xmlns:xlink="http://www.w3.org/1999/xlink" x="0px" y="0px"
	 viewBox="0 0 1024 1024" style="enable-background:new 0 0 1024 1024;" xml:space="preserve">
<style type="text/css">
	.st0{fill:#148DBD;}
</style>
<g>
	<g>
		<path class="st0" d="M484.6,17.8c26.1-1.6,52.4-0.7,78.5,2.3c6,0.8,12.3,1,17.8,3.9c10.3,5.1,18.6,14.9,20.6,26.3
			c1.8,10.2,0.2,20.5,0.6,30.8c-1.3,19.5,11,39.5,29.6,46.2c22,9,44,18,65.9,27.1c14.5,5.3,31.6,2.4,43.6-7.3
			c7.3-6.4,13.7-13.6,20.5-20.5c3.6-3.4,7.2-7.1,11.7-9.3c12.2-6.1,28.5-4.8,38.5,4.9c27.3,27.3,54.7,54.7,82,82
			c2.6,2.6,5.5,5.2,7.5,8.4c6.3,9.8,6.6,22.9,1.8,33.4c-2.8,6.4-8.4,11-13.1,16c-8.2,8.1-17.6,15.7-22.4,26.5
			c-4.7,11-5.7,23.9-1.2,35.1c7.9,18.6,15.6,37.4,23.2,56.1c2.9,6.9,5.1,14.2,10,20c8,9.8,19.9,16.8,32.7,17.1
			c10.9,0.3,21.8-0.1,32.7,0.2c18,0.3,33.9,16.1,34.8,34c5.4,40.2,5.2,81.2-0.5,121.3c-2.2,16.5-17.4,30.5-34.2,30.8
			c-12.7,1.3-25.4-0.8-38,1.1c-15,2.8-28.4,13.6-34,27.8c-7.6,18.4-15.1,36.8-22.7,55.2c-2.2,5.5-5,10.8-5.9,16.7
			c-2.1,12.4,1,25.9,9.1,35.7c6.1,7.2,13.3,13.4,19.9,20.2c4.4,4.4,9,9,11.2,14.9c3.8,9.6,3.3,21-1.7,30.1
			c-2.9,5.5-8.1,9.2-12.1,13.9c-25.8,25.9-51.7,51.7-77.5,77.6c-9.6,9.3-24.8,11.3-37,6.5c-6.2-2.2-10.5-7.3-15.2-11.5
			c-6.9-6.2-12.6-13.5-19.8-19.3c-11.8-9.1-28.3-12.2-42.3-7c-19.6,8.1-39.2,16.2-58.9,24.3c-4.1,1.8-8.4,3.1-12.1,5.5
			c-13.4,8.2-22.6,23.5-22,39.4c-0.3,11.3,0.8,22.5-0.4,33.8c-2.1,12.1-10.6,22.9-21.9,27.7c-5.5,2.4-11.5,2.7-17.4,3.6
			c-39.2,4.9-79,4.7-118.1-1.1c-15.3-3.1-27.6-17.4-28.4-32.9c0-8.7,0-17.4,0-26.1c-0.1-5,0-10.1-1.4-15
			c-3.6-13.4-13.3-25.4-26.2-30.8c-21.7-8.6-43.4-17.3-64.9-26.3c-14.3-5.4-31.2-2.6-43.1,7c-5,4.3-9.5,9.2-14.2,13.8
			c-6.2,6.2-11.8,13.5-20.1,17.1c-11,4.8-24.6,4-34.5-3c-5.1-3.9-9.1-8.8-13.9-13C178,866,154.9,843,131.8,820.2
			c-3.5-3.8-7.8-7-10.3-11.6c-5.5-9.5-5.8-21.6-1.5-31.6c2.9-7,8.9-11.8,13.9-17.2c5-4.7,9.8-9.5,14.5-14.4c10-10.9,13.7-27,10-41.3
			c-1-4.4-3.1-8.5-4.9-12.6c-8-18.6-15.8-37.4-23.7-56.1c-6.1-15.4-21.4-26.3-37.7-28.2c-14.2-1-28.7,1.5-42.7-1.4
			c-13.3-3.7-24-15.6-26.1-29.3C17,535.7,16.6,494,21.9,453c1.6-16.3,15.8-30.5,32.1-32.1c10.6-0.6,21.3-0.4,32-0.4
			c18.9,0.1,36.7-13.3,42.4-31.4c8.3-20.7,16.6-41.4,25-62c4.7-11.6,3.8-25-1.5-36.3c-5.7-11.4-16.2-19-24.9-28
			c-3.4-3.7-7.3-7-9.6-11.5c-6.2-11.4-6-26.5,1.7-37.2c3.1-4.2,7.2-7.5,10.7-11.3c25.5-25.9,50.9-51.8,76.3-77.8
			c9.2-9.1,23.8-11.5,35.8-7.2c7.8,3.1,13.9,9.3,19.7,15.2c4.3,4.7,8.9,9.2,13.4,13.6c12,11,30.3,14.8,45.6,9
			c22.4-9.3,44.6-18.8,67-28c14.1-5.8,24.6-19.1,27.4-34c1.5-11.9,0.2-23.8,0.5-35.8c-0.8-17.7,13.7-34.8,31.4-36.6
			C459.5,19.6,472.1,18.7,484.6,17.8z M487.6,288.8c-32.4,3.3-64.1,13.9-91.9,30.9c-39,23.6-70.4,59.5-88.7,101.3
			c-16.4,37.4-22,79.4-16.3,119.8c4.9,35.7,18.9,70.2,40.1,99.3c22,30.4,51.9,55.1,85.8,71c37,17.4,78.9,24.1,119.4,19.4
			c38.3-4.3,75.5-18.9,106.4-41.9c29.1-21.4,52.8-50,68.5-82.6c19-39.2,25.8-84,19.8-127c-5-36.9-19.7-72.3-42-102
			c-21.3-28.6-49.5-51.9-81.7-67.4C570.3,291.6,528.3,284.5,487.6,288.8z"/>
	</g>
</g>
</svg>
