<?xml version="1.0" encoding="utf-8"?>
<!-- Generator: Adobe Illustrator 21.0.0, SVG Export Plug-In . SVG Version: 6.00 Build 0)  -->
<svg version="1.1" id="Layer_1" xmlns="http://www.w3.org/2000/svg" xmlns:xlink="http://www.w3.org/1999/xlink" x="0px" y="0px"
	 viewBox="0 0 1024 1024" style="enable-background:new 0 0 1024 1024;" xml:space="preserve">
<style type="text/css">
	.st0{fill:#41CD52;}
	.st1{fill:#FFFFFF;}
</style>
<path id="path6" class="st0" d="M140.7,141H1024v609.1c-47.4,47.6-95,95-142.7,142.3H0V281.5C46.7,234.5,93.8,187.8,140.7,141z"/>
<path id="path8" class="st1" d="M271.2,299.1c33.5-22.2,75-27.8,114.4-27.4c37.5,0.5,77,7,108.1,29.5c22.6,15.9,37.3,40.4,47.1,65.8
	c15.8,41.7,20.5,86.7,21,130.9c0.1,44.6-2,90.2-16.7,132.7c-9.9,28.9-28.7,54.6-53.5,72.4c17.9,28.9,36.1,57.7,53.9,86.6
	c-22.5,10.4-44.8,20.8-67.3,31.1c-19.1-31.6-38.2-63.2-57.4-94.7c-26,4.3-52.5,3.9-78.6,1c-31.3-3.7-63.1-13.3-87.2-34.3
	c-18.5-16-30.2-38.5-38.1-61.3c-13-38.6-16.5-79.7-17.1-120.2c-0.3-43.8,2.5-88.3,15.7-130.3C225.7,349.2,242.7,317.6,271.2,299.1z"
	/>
<path id="path10" class="st1" d="M651.9,297.7c23.5,0,47,0,70.5,0c0.1,31.1,0,62.1,0,93.2c30,0,60.1,0,90.1,0
	c-0.5,20.2-1.1,40.3-1.6,60.5c-30,0.1-60,0-90,0c0.1,50.9-0.2,101.9,0.1,152.8c0.6,13.9,0.3,28.7,6.4,41.5
	c4.5,9.9,16.5,12.5,26.4,12.8c18.5-0.1,37-1.2,55.5-1.5c1.1,18.5,2.2,37.1,3.3,55.6c-36.8,6.2-75.4,13.6-112,2
	c-15.4-4.6-29.8-14.8-36-30c-11.2-25.9-12.1-54.7-12.6-82.6c0-50.2,0-100.5,0-150.7c-16.4,0-32.8,0-49.1,0c0-20.1,0-40.3,0-60.5
	c16.4-0.1,32.7,0,49.1,0C651.9,359.8,651.9,328.8,651.9,297.7z"/>
<path id="path12" class="st0" d="M355.8,335.4c22.8-3,46.7-2.2,68.3,6.4c17.5,6.9,32.3,20.5,40.2,37.6c12,26,16.6,54.7,19,83.1
	c2.5,37.7,2.2,75.8-3,113.3c-3.7,22.3-8.9,45.8-24,63.4c-15.3,17.7-39,25.2-61.7,27c-23.9,1.8-49.2,0-70.8-11.3
	c-12.6-6.7-23.3-17.2-29.6-30.1c-7.6-15.4-11.7-32.3-14.7-49.2c-8.8-53.5-10.9-109,1.1-162.2c5-20.1,12.2-40.7,26.9-55.8
	C320.3,344.6,338,337.9,355.8,335.4z"/>
</svg>
