<?xml version="1.0" encoding="utf-8"?>
<!-- Generator: Adobe Illustrator 21.0.0, SVG Export Plug-In . SVG Version: 6.00 Build 0)  -->
<svg version="1.1" id="Layer_1" xmlns="http://www.w3.org/2000/svg" xmlns:xlink="http://www.w3.org/1999/xlink" x="0px" y="0px"
	 viewBox="0 0 512 512" style="enable-background:new 0 0 512 512;" xml:space="preserve">
<style type="text/css">
	.st0{fill:#148DBD;}
	.st1{fill:#FFFFFF;}
</style>
<g>
	<g>
		<path class="st0" d="M231.5,13c31.3-3,63.2-0.2,93.4,8.7c33.8,9.9,65.4,27.3,91.9,50.6c44.1,38.4,73.7,93.1,81.2,151.2
			c7.2,52.5-3.3,107.2-29.7,153.2c-21.6,38-53.6,70-91.6,91.6c-45.6,26.2-100,36.7-152.1,29.8c-50.5-6.3-98.7-29.2-135.7-64.2
			c-26.5-24.8-47.4-55.7-60.5-89.6c-25-63.6-21.4-137.8,9.8-198.6C61,100.4,98.4,62.6,143.6,39.2C170.9,25,200.9,16.1,231.5,13z
			 M146.1,134.2c-3.8,8.5-4.8,17.9-4.5,27.1c0.1,23.9,0,47.9,0.1,71.8c-12.9-0.5-25.1,6-33.8,15.2c-7.7,8.2-13.3,19.1-13,30.6
			c0,30.8,0,61.7,0,92.5c-0.3,12,5.7,23.4,14,31.7c8.1,8.1,19,14,30.6,14.1c31.6,0.1,63.1,0,94.7,0c11.9-0.1,23-6.3,31.1-14.6
			c8.3-8.5,14-20.1,13.6-32.1c26.1-0.1,52.2,0,78.3-0.1c15.4-0.1,29.9-7.6,40.7-18.1c11.4-11.2,19.4-26.6,19.1-42.9
			c0-50.4,0-100.9,0-151.3c1.1-27-19-52-44-60.5c-10-3.6-20.7-2.5-31.2-2.7c-46.4,0-92.9,0-139.3,0
			C178,94.8,155.8,112.2,146.1,134.2z"/>
	</g>
	<path class="st0" d="M187.8,137.7c5.9-4.2,13.4-3.6,20.3-3.6c48.3,0,96.6,0,144.8,0c6.1-0.1,12.8-0.1,18.1,3.6
		c5.1,3.6,6.8,10.1,6.9,16c0,50.8,0,101.6,0,152.3c0.1,6.4,0,13.5-4,18.8c-3.9,5-10.7,6.3-16.7,6.3c-26.1,0-52.2,0-78.2,0
		c-0.2-13.5,0-26.9-0.1-40.4c-0.1-9.2,1-18.9-3-27.5c-6.8-15.7-21.9-28.7-39.4-30.1c-18.5-0.3-37.1,0-55.6-0.1
		c-0.1-26.1,0-52.2,0-78.3C180.7,148.5,182.4,141.5,187.8,137.7z"/>
	<path class="st0" d="M134.5,272.8c1.5-0.8,3.4-0.3,5-0.5c31.9-0.1,63.9,0.1,95.8-0.1c1.6,0.1,4.7-0.4,4.3,2.2
		c-0.1,34.4,0.3,68.8-0.2,103.1c-4.6,0.6-9.3,0.2-13.9,0.3c-29.4,0-58.8,0-88.3,0c-1.4,0.1-3.5-0.1-3.1-2.1c-0.1-32.7,0-65.4,0-98
		C134.2,276.1,133.9,274.4,134.5,272.8z"/>
</g>
<g>
	<g>
		<path class="st1" d="M146.1,134.2c9.7-22,31.9-39.3,56.5-39.2c46.4-0.1,92.9,0,139.3,0c10.4,0.2,21.2-0.9,31.2,2.7
			c25,8.5,45.1,33.4,44,60.5c0,50.4,0,100.9,0,151.3c0.3,16.2-7.8,31.7-19.1,42.9c-10.8,10.6-25.4,18-40.7,18.1
			c-26.1,0.1-52.2,0-78.3,0.1c0.4,12.1-5.3,23.6-13.6,32.1c-8.1,8.3-19.2,14.5-31.1,14.6c-31.6-0.1-63.1,0-94.7,0
			c-11.6,0-22.6-6-30.6-14.1c-8.3-8.3-14.4-19.7-14-31.7c0-30.8,0-61.7,0-92.5c-0.3-11.5,5.2-22.4,13-30.6
			c8.7-9.2,20.9-15.7,33.8-15.2c-0.1-23.9,0-47.8-0.1-71.8C141.3,152.1,142.3,142.6,146.1,134.2z M187.8,137.7
			c-5.4,3.8-7.1,10.8-7,17.1c0,26.1-0.1,52.2,0,78.3c18.5,0.1,37.1-0.1,55.6,0.1c17.4,1.4,32.5,14.4,39.4,30.1
			c4,8.6,2.9,18.3,3,27.5c0.1,13.5-0.1,26.9,0.1,40.4c26.1,0,52.2,0,78.2,0c6,0,12.8-1.3,16.7-6.3c4.1-5.3,4.1-12.4,4-18.8
			c-0.1-50.8,0-101.6,0-152.3c-0.1-5.9-1.8-12.5-6.9-16c-5.2-3.7-12-3.6-18.1-3.6c-48.3,0.1-96.6,0-144.8,0
			C201.2,134.1,193.7,133.5,187.8,137.7z M134.5,272.8c-0.6,1.6-0.3,3.3-0.4,5c0,32.7-0.1,65.4,0,98c-0.4,2,1.7,2.2,3.1,2.1
			c29.4,0,58.8,0,88.3,0c4.6-0.1,9.3,0.3,13.9-0.3c0.5-34.4,0.1-68.8,0.2-103.1c0.4-2.6-2.7-2.1-4.3-2.2c-31.9,0.1-63.9,0-95.8,0.1
			C137.8,272.5,136,272,134.5,272.8z"/>
	</g>
</g>
</svg>
